<svg style="width: 528px; height: 200px;" viewBox="0 0 139.7 52.917" class="m-image">
 <g transform="translate(31.75 -22.411)">
  <path d="m-28.575 24.527c-0.58632 0-1.0583 0.47202-1.0583 1.0583v46.567c0 0.58632 0.47202 1.0583 1.0583 1.0583h29.633c0.58632 0 1.0583-0.47202 1.0583-1.0583v-46.567c0-0.58632-0.47202-1.0583-1.0583-1.0583zm3.175 3.175h23.283c0.58632 0 1.0583 0.47202 1.0583 1.0583v40.217c0 0.58632-0.47202 1.0583-1.0583 1.0583h-23.283c-0.58632 0-1.0583-0.47202-1.0583-1.0583v-40.217c0-0.58632 0.47202-1.0583 1.0583-1.0583z" fill="#c7cf2f" fill-opacity=".50196" stop-color="#000000" style="-inkscape-stroke:none;font-variation-settings:normal"/>
  <path d="m1.0583 25.586c-0.58632 0-1.0583 0.47202-1.0583 1.0583v44.45c7e-15 0.58632 0.47202 1.0583 1.0583 1.0583h103.72c0.58632 0 1.0583-0.47202 1.0583-1.0583v-44.45c0-0.58632-0.47201-1.0583-1.0583-1.0583zm2.1167 2.1167h99.483c0.58632 0 1.0583 0.47202 1.0583 1.0583v40.217c0 0.58632-0.47202 1.0583-1.0583 1.0583h-99.483c-0.58632 0-1.0583-0.47202-1.0583-1.0583v-40.217c0-0.58632 0.47202-1.0583 1.0583-1.0583z" fill="#c7cf2f" fill-opacity=".50196" stop-color="#000000" style="-inkscape-stroke:none;font-variation-settings:normal"/>
  <rect x="2.1167" y="27.702" width="101.6" height="42.333" rx="1.0583" ry="1.0583" fill="#2f83cc" fill-opacity=".74902" stop-color="#000000" style="-inkscape-stroke:none;font-variation-settings:normal"/>
  <g fill="#c7cf2f" fill-opacity=".50196">
   <path d="m32.808 48.869c-0.58632 0-1.0583 0.47202-1.0583 1.0583v19.05c0 0.58632 0.47202 1.0583 1.0583 1.0583h31.75c0.58632 0 1.0583-0.47202 1.0583-1.0583v-19.05c0-0.58632-0.47202-1.0583-1.0583-1.0583zm4.2333 4.2333h23.283c0.58632 0 1.0583 0.47202 1.0583 1.0583v10.583c0 0.58632-0.47202 1.0583-1.0583 1.0583h-23.283c-0.58632 0-1.0583-0.47202-1.0583-1.0583v-10.583c0-0.58632 0.47202-1.0583 1.0583-1.0583z" stop-color="#000000" style="-inkscape-stroke:none;font-variation-settings:normal"/>
   <path d="m5.2917 27.702c-0.58632 0-1.0583 0.47202-1.0583 1.0583v10.583c0 0.58632 0.47202 1.0583 1.0583 1.0583h2.1167c-0.58632 0-1.0583-0.47202-1.0583-1.0583v-10.583c0-0.58632 0.47202-1.0583 1.0583-1.0583zm25.4 0c0.58632 0 1.0583 0.47202 1.0583 1.0583v10.583c0 0.58632-0.47202 1.0583-1.0583 1.0583h2.1167c0.58632 0 1.0583-0.47202 1.0583-1.0583v-10.583c0-0.58632-0.47202-1.0583-1.0583-1.0583z" stop-color="#000000" style="-inkscape-stroke:none;font-variation-settings:normal"/>
   <path d="m5.2917 50.986c-0.58632 0-1.0583 0.47202-1.0583 1.0583v14.817c0 0.58632 0.47202 1.0583 1.0583 1.0583h27.517c0.58632 0 1.0583-0.47202 1.0583-1.0583v-14.817c0-0.58632-0.47202-1.0583-1.0583-1.0583zm2.1167 2.1167h23.283c0.58632 0 1.0583 0.47202 1.0583 1.0583v10.583c0 0.58632-0.47202 1.0583-1.0583 1.0583h-23.283c-0.58632 0-1.0583-0.47202-1.0583-1.0583v-10.583c0-0.58632 0.47202-1.0583 1.0583-1.0583z" stop-color="#000000" style="font-variation-settings:normal"/>
  </g>
  <g fill-opacity=".74902">
   <rect x="6.35" y="53.102" width="25.4" height="12.7" rx="1.0583" ry="1.0583" fill="#dcdcdc" stop-color="#000000" style="-inkscape-stroke:none;font-variation-settings:normal"/>
   <rect x="35.983" y="53.102" width="25.4" height="12.7" rx="1.0583" ry="1.0583" fill="#dcdcdc" stop-color="#000000" style="-inkscape-stroke:none;font-variation-settings:normal"/>
   <rect x="-26.458" y="27.702" width="25.4" height="42.333" rx="1.0583" ry="1.0583" fill="#405363" stop-color="#000000" style="-inkscape-stroke:none;font-variation-settings:normal"/>
  </g>
  <path d="m3.1326 27.703c-0.55525 0.02177-0.99821 0.46726-1.0154 1.0237v40.284c0.017339 0.55997 0.46559 1.0077 1.0258 1.0242h99.547c0.57138-0.01683 1.0263-0.48222 1.0263-1.0578v-40.217c0-0.57205-0.44955-1.0351-1.016-1.0573h-98.414zm3.2169 4.2323h93.133v33.867h-93.133z" fill="#3bd267" fill-opacity=".50196" stop-color="#000000" style="-inkscape-stroke:none;font-variation-settings:normal"/>
  <path d="m79.375 50.986c-0.58632 0-1.0583 0.47202-1.0583 1.0583v2.1167c0-0.58632 0.47202-1.0583 1.0583-1.0583h23.283c0.58564 0 1.0572 0.4709 1.0583 1.0563v-2.1146c0-0.58632-0.47202-1.0583-1.0583-1.0583zm-1.0583 13.758v2.1167c0 0.58632 0.47202 1.0583 1.0583 1.0583h23.283c0.58632 0 1.0583-0.47202 1.0583-1.0583v-2.1146c-1e-3 0.58537-0.4727 1.0563-1.0583 1.0563h-23.283c-0.58632 0-1.0583-0.47202-1.0583-1.0583z" fill="#c7cf2f" fill-opacity=".50196" stop-color="#000000" style="font-variation-settings:normal"/>
  <rect x="78.317" y="53.102" width="25.4" height="12.7" rx="1.0583" ry="1.0583" fill="#dcdcdc" fill-opacity=".74902" stop-color="#000000" style="-inkscape-stroke:none;font-variation-settings:normal"/>
  <text x="90.929665" y="58.218174" dominant-baseline="auto" fill="#2f363f" font-family="'Source Sans Pro'" font-size="4.2333px" stop-color="#000000" stroke-dasharray="0.529001, 2.116" stroke-linecap="round" stroke-linejoin="round" stroke-width=".529" text-align="center" text-anchor="middle" style="-inkscape-stroke:none;font-feature-settings:normal;font-variant-alternates:normal;font-variant-caps:normal;font-variant-east-asian:normal;font-variant-ligatures:normal;font-variant-numeric:normal;font-variant-position:normal;font-variation-settings:normal;line-height:1.25;text-decoration-color:#000000;text-decoration-line:none;text-decoration-style:solid;text-indent:0;text-orientation:mixed;text-transform:none;white-space:normal" xml:space="preserve"><tspan x="90.929665" y="58.218174" dominant-baseline="auto" stop-color="#000000" text-align="center" style="-inkscape-stroke:none;font-feature-settings:normal;font-variant-alternates:normal;font-variant-caps:normal;font-variant-east-asian:normal;font-variant-ligatures:normal;font-variant-numeric:normal;font-variant-position:normal;font-variation-settings:normal;line-height:1.25;text-decoration-color:#000000;text-decoration-line:none;text-decoration-style:solid;text-indent:0;text-orientation:mixed;text-transform:none;white-space:normal">Margin: 8</tspan><tspan x="90.929665" y="63.509834" dominant-baseline="auto" stop-color="#000000" text-align="center" style="-inkscape-stroke:none;font-feature-settings:normal;font-variant-alternates:normal;font-variant-caps:normal;font-variant-east-asian:normal;font-variant-ligatures:normal;font-variant-numeric:normal;font-variant-position:normal;font-variation-settings:normal;line-height:1.25;text-decoration-color:#000000;text-decoration-line:none;text-decoration-style:solid;text-indent:0;text-orientation:mixed;text-transform:none;white-space:normal">NoPadX</tspan></text>
  <rect x="78.317" y="27.702" width="25.4" height="12.7" rx="1.0583" ry="1.0583" fill="#dcdcdc" fill-opacity=".74902" stop-color="#000000" style="-inkscape-stroke:none;font-variation-settings:normal"/>
  <text x="90.798409" y="32.885632" dominant-baseline="auto" fill="#2f363f" font-family="'Source Sans Pro'" font-size="4.2333px" stop-color="#000000" stroke-dasharray="0.529001, 2.116" stroke-linecap="round" stroke-linejoin="round" stroke-width=".529" text-align="center" text-anchor="middle" style="-inkscape-stroke:none;font-feature-settings:normal;font-variant-alternates:normal;font-variant-caps:normal;font-variant-east-asian:normal;font-variant-ligatures:normal;font-variant-numeric:normal;font-variant-position:normal;font-variation-settings:normal;line-height:1.25;text-decoration-color:#000000;text-decoration-line:none;text-decoration-style:solid;text-indent:0;text-orientation:mixed;text-transform:none;white-space:normal" xml:space="preserve"><tspan x="90.798409" y="32.885632" dominant-baseline="auto" stop-color="#000000" text-align="center" style="-inkscape-stroke:none;font-feature-settings:normal;font-variant-alternates:normal;font-variant-caps:normal;font-variant-east-asian:normal;font-variant-ligatures:normal;font-variant-numeric:normal;font-variant-position:normal;font-variation-settings:normal;line-height:1.25;text-decoration-color:#000000;text-decoration-line:none;text-decoration-style:solid;text-indent:0;text-orientation:mixed;text-transform:none;white-space:normal">Margin: 8</tspan><tspan x="90.798409" y="38.177292" dominant-baseline="auto" stop-color="#000000" text-align="center" style="-inkscape-stroke:none;font-feature-settings:normal;font-variant-alternates:normal;font-variant-caps:normal;font-variant-east-asian:normal;font-variant-ligatures:normal;font-variant-numeric:normal;font-variant-position:normal;font-variation-settings:normal;line-height:1.25;text-decoration-color:#000000;text-decoration-line:none;text-decoration-style:solid;text-indent:0;text-orientation:mixed;text-transform:none;white-space:normal">NoPad</tspan></text>
  <text x="52.810837" y="38.545609" dominant-baseline="auto" fill="#dcdcdc" font-family="'Source Sans Pro'" font-size="4.2333px" stop-color="#000000" stroke-linecap="round" stroke-linejoin="round" stroke-opacity=".74902" stroke-width=".52917" text-align="center" text-anchor="middle" style="-inkscape-stroke:none;font-feature-settings:normal;font-variant-alternates:normal;font-variant-caps:normal;font-variant-east-asian:normal;font-variant-ligatures:normal;font-variant-numeric:normal;font-variant-position:normal;font-variation-settings:normal;line-height:1.25;text-decoration-color:#000000;text-decoration-line:none;text-decoration-style:solid;text-indent:0;text-orientation:mixed;text-transform:none;white-space:normal" xml:space="preserve"><tspan x="52.810837" y="38.545609" dominant-baseline="auto" stop-color="#000000" text-align="center" style="-inkscape-stroke:none;font-feature-settings:normal;font-variant-alternates:normal;font-variant-caps:normal;font-variant-east-asian:normal;font-variant-ligatures:normal;font-variant-numeric:normal;font-variant-position:normal;font-variation-settings:normal;line-height:1.25;text-decoration-color:#000000;text-decoration-line:none;text-decoration-style:solid;text-indent:0;text-orientation:mixed;text-transform:none;white-space:normal">Padding: 16</tspan><tspan x="52.810837" y="43.837273" dominant-baseline="auto" stop-color="#000000" text-align="center" style="-inkscape-stroke:none;font-feature-settings:normal;font-variant-alternates:normal;font-variant-caps:normal;font-variant-east-asian:normal;font-variant-ligatures:normal;font-variant-numeric:normal;font-variant-position:normal;font-variation-settings:normal;line-height:1.25;text-decoration-color:#000000;text-decoration-line:none;text-decoration-style:solid;text-indent:0;text-orientation:mixed;text-transform:none;white-space:normal">Margin: 8</tspan></text>
  <rect x="6.35" y="27.702" width="25.4" height="12.7" rx="1.0583" ry="1.0583" fill="#dcdcdc" fill-opacity=".74902" stop-color="#000000" style="-inkscape-stroke:none;font-variation-settings:normal"/>
  <g fill="#2f363f" font-family="'Source Sans Pro'" font-size="4.2333px" stroke-dasharray="0.529001, 2.116" stroke-linecap="round" stroke-linejoin="round" stroke-width=".529" text-anchor="middle">
   <text x="18.9484" y="32.850029" dominant-baseline="auto" stop-color="#000000" text-align="center" style="-inkscape-stroke:none;font-feature-settings:normal;font-variant-alternates:normal;font-variant-caps:normal;font-variant-east-asian:normal;font-variant-ligatures:normal;font-variant-numeric:normal;font-variant-position:normal;font-variation-settings:normal;line-height:1.25;text-decoration-color:#000000;text-decoration-line:none;text-decoration-style:solid;text-indent:0;text-orientation:mixed;text-transform:none;white-space:normal" xml:space="preserve"><tspan x="18.9484" y="32.850029" dominant-baseline="auto" stop-color="#000000" text-align="center" style="-inkscape-stroke:none;font-feature-settings:normal;font-variant-alternates:normal;font-variant-caps:normal;font-variant-east-asian:normal;font-variant-ligatures:normal;font-variant-numeric:normal;font-variant-position:normal;font-variation-settings:normal;line-height:1.25;text-decoration-color:#000000;text-decoration-line:none;text-decoration-style:solid;text-indent:0;text-orientation:mixed;text-transform:none;white-space:normal">Margin: 8</tspan><tspan x="18.9484" y="38.141693" dominant-baseline="auto" stop-color="#000000" text-align="center" style="-inkscape-stroke:none;font-feature-settings:normal;font-variant-alternates:normal;font-variant-caps:normal;font-variant-east-asian:normal;font-variant-ligatures:normal;font-variant-numeric:normal;font-variant-position:normal;font-variation-settings:normal;line-height:1.25;text-decoration-color:#000000;text-decoration-line:none;text-decoration-style:solid;text-indent:0;text-orientation:mixed;text-transform:none;white-space:normal">NoPadY</tspan></text>
   <text x="48.579613" y="60.485222" dominant-baseline="auto" stop-color="#000000" text-align="center" style="-inkscape-stroke:none;font-feature-settings:normal;font-variant-alternates:normal;font-variant-caps:normal;font-variant-east-asian:normal;font-variant-ligatures:normal;font-variant-numeric:normal;font-variant-position:normal;font-variation-settings:normal;line-height:1.25;text-decoration-color:#000000;text-decoration-line:none;text-decoration-style:solid;text-indent:0;text-orientation:mixed;text-transform:none;white-space:normal" xml:space="preserve"><tspan x="48.579613" y="60.485222" dominant-baseline="auto" fill="#2f363f" font-family="'Source Sans Pro'" font-size="4.2333px" stop-color="#000000" stroke-dasharray="0.529001, 2.116" stroke-linecap="round" stroke-linejoin="round" stroke-width=".529" text-align="center" text-anchor="middle" style="-inkscape-stroke:none;font-feature-settings:normal;font-variant-alternates:normal;font-variant-caps:normal;font-variant-east-asian:normal;font-variant-ligatures:normal;font-variant-numeric:normal;font-variant-position:normal;font-variation-settings:normal;line-height:1.25;text-decoration-color:#000000;text-decoration-line:none;text-decoration-style:solid;text-indent:0;text-orientation:mixed;text-transform:none;white-space:normal">Margin: 16</tspan></text>
   <text x="18.9484" y="60.485222" dominant-baseline="auto" stop-color="#000000" text-align="center" style="-inkscape-stroke:none;font-feature-settings:normal;font-variant-alternates:normal;font-variant-caps:normal;font-variant-east-asian:normal;font-variant-ligatures:normal;font-variant-numeric:normal;font-variant-position:normal;font-variation-settings:normal;line-height:1.25;text-decoration-color:#000000;text-decoration-line:none;text-decoration-style:solid;text-indent:0;text-orientation:mixed;text-transform:none;white-space:normal" xml:space="preserve"><tspan x="18.9484" y="60.485222" dominant-baseline="auto" fill="#2f363f" font-family="'Source Sans Pro'" font-size="4.2333px" stop-color="#000000" stroke-dasharray="0.529001, 2.116" stroke-linecap="round" stroke-linejoin="round" stroke-width=".529" text-align="center" text-anchor="middle" style="-inkscape-stroke:none;font-feature-settings:normal;font-variant-alternates:normal;font-variant-caps:normal;font-variant-east-asian:normal;font-variant-ligatures:normal;font-variant-numeric:normal;font-variant-position:normal;font-variation-settings:normal;line-height:1.25;text-decoration-color:#000000;text-decoration-line:none;text-decoration-style:solid;text-indent:0;text-orientation:mixed;text-transform:none;white-space:normal">Margin: 8</tspan></text>
  </g>
  <text x="-13.851467" y="49.863789" dominant-baseline="auto" fill="#dcdcdc" font-family="'Source Sans Pro'" font-size="4.2333px" stop-color="#000000" stroke-linecap="round" stroke-linejoin="round" stroke-opacity=".74902" stroke-width=".52917" text-align="center" text-anchor="middle" style="-inkscape-stroke:none;font-feature-settings:normal;font-variant-alternates:normal;font-variant-caps:normal;font-variant-east-asian:normal;font-variant-ligatures:normal;font-variant-numeric:normal;font-variant-position:normal;font-variation-settings:normal;line-height:1.25;text-decoration-color:#000000;text-decoration-line:none;text-decoration-style:solid;text-indent:0;text-orientation:mixed;text-transform:none;white-space:normal" xml:space="preserve"><tspan x="-13.851467" y="49.863789" dominant-baseline="auto" fill="#dcdcdc" font-family="'Source Sans Pro'" font-size="4.2333px" stop-color="#000000" stroke-linecap="round" stroke-linejoin="round" stroke-opacity=".74902" stroke-width=".52917" text-align="center" text-anchor="middle" style="-inkscape-stroke:none;font-feature-settings:normal;font-variant-alternates:normal;font-variant-caps:normal;font-variant-east-asian:normal;font-variant-ligatures:normal;font-variant-numeric:normal;font-variant-position:normal;font-variation-settings:normal;line-height:1.25;text-decoration-color:#000000;text-decoration-line:none;text-decoration-style:solid;text-indent:0;text-orientation:mixed;text-transform:none;white-space:normal">Margin: 12</tspan></text>
 </g>
</svg>
